<svg width="92" height="30" viewBox="0 0 92 30" fill="none" xmlns="http://www.w3.org/2000/svg">
<defs>
  <linearGradient id="p1" x1="16.0816" y1="3.63043" x2="26.7377" y2="20.8945" gradientUnits="userSpaceOnUse">
    <stop stop-color="#555D64"/><stop offset="1" stop-color="#292C2E"/>
  </linearGradient>
  <radialGradient id="p2" cx="0" cy="0" r="1" gradientTransform="matrix(19.3945 11.375 -0.976945 13.1382 8.84666 2.8125)" gradientUnits="userSpaceOnUse">
    <stop stop-color="white"/><stop offset="1" stop-color="white" stop-opacity="0"/>
  </radialGradient>
  <linearGradient id="p3" x1="16.0816" y1="3.63043" x2="26.7377" y2="20.8945" gradientUnits="userSpaceOnUse">
    <stop stop-color="#555D64"/><stop offset="1" stop-color="#292C2E"/>
  </linearGradient>
  <radialGradient id="p4" cx="0" cy="0" r="1" gradientTransform="matrix(19.3945 11.375 -0.976945 13.1382 8.84666 2.8125)" gradientUnits="userSpaceOnUse">
    <stop stop-color="white"/><stop offset="1" stop-color="white" stop-opacity="0"/>
  </radialGradient>
  <linearGradient id="tg" x1="36" y1="0" x2="92" y2="30" gradientUnits="userSpaceOnUse">
    <stop stop-color="#555D64"/><stop offset="1" stop-color="#292C2E"/>
  </linearGradient>
</defs>
<path d="M15.623 24.6C14.1075 25.4925 12.3336 26 10.4564 26C4.75583 26 0.123047 21.2925 0.123047 15.5C0.123047 9.7075 4.75583 5 10.4564 5C12.3336 5 14.1075 5.5075 15.623 6.4C12.5403 8.22 10.4564 11.615 10.4564 15.5C10.4564 19.4025 12.5403 22.78 15.623 24.6Z" fill="url(#p1)"/>
<path d="M15.623 24.6C14.1075 25.4925 12.3336 26 10.4564 26C4.75583 26 0.123047 21.2925 0.123047 15.5C0.123047 9.7075 4.75583 5 10.4564 5C12.3336 5 14.1075 5.5075 15.623 6.4C12.5403 8.22 10.4564 11.615 10.4564 15.5C10.4564 19.4025 12.5403 22.78 15.623 24.6Z" fill="url(#p2)" fill-opacity="0.2"/>
<path d="M15.623 24.6C17.1386 25.4925 18.9125 26 20.7897 26C26.4903 26 31.123 21.2925 31.123 15.5C31.123 9.7075 26.4903 5 20.7897 5C18.9125 5 17.1386 5.5075 15.623 6.4C18.7058 8.22 20.7897 11.615 20.7897 15.5C20.7897 19.4025 18.7058 22.78 15.623 24.6Z" fill="url(#p3)"/>
<path d="M15.623 24.6C17.1386 25.4925 18.9125 26 20.7897 26C26.4903 26 31.123 21.2925 31.123 15.5C31.123 9.7075 26.4903 5 20.7897 5C18.9125 5 17.1386 5.5075 15.623 6.4C18.7058 8.22 20.7897 11.615 20.7897 15.5C20.7897 19.4025 18.7058 22.78 15.623 24.6Z" fill="url(#p4)" fill-opacity="0.2"/>
<g fill="url(#tg)">
<path d="M721 702 472 0H258L9 702H191L365 172L540 702Z" transform="translate(36.0000 24.0000) scale(0.020000 -0.020000)"/><path d="M585 238H198Q202 186 231.5 158.5Q261 131 304 131Q368 131 393 185H575Q561 130 524.5 86.0Q488 42 433.0 17.0Q378 -8 310 -8Q228 -8 164.0 27.0Q100 62 64.0 127.0Q28 192 28 279Q28 366 63.5 431.0Q99 496 163.0 531.0Q227 566 310 566Q391 566 454.0 532.0Q517 498 552.5 435.0Q588 372 588 288Q588 264 585 238ZM413 333Q413 377 383.0 403.0Q353 429 308 429Q265 429 235.5 404.0Q206 379 199 333Z" transform="translate(50.9000 24.0000) scale(0.020000 -0.020000)"/><path d="M233 740V0H62V740Z" transform="translate(63.5200 24.0000) scale(0.020000 -0.020000)"/><path d="M46 708Q46 748 74.5 774.5Q103 801 148 801Q192 801 220.5 774.5Q249 748 249 708Q249 669 220.5 642.5Q192 616 148 616Q103 616 74.5 642.5Q46 669 46 708ZM233 558V0H62V558Z" transform="translate(69.7200 24.0000) scale(0.020000 -0.020000)"/><path d="M28 279Q28 365 66.0 430.5Q104 496 170.0 531.0Q236 566 318 566Q400 566 466.0 531.0Q532 496 570.0 430.5Q608 365 608 279Q608 193 569.5 127.5Q531 62 464.5 27.0Q398 -8 316 -8Q234 -8 168.5 27.0Q103 62 65.5 127.0Q28 192 28 279ZM434 279Q434 346 400.5 382.0Q367 418 318 418Q268 418 235.0 382.5Q202 347 202 279Q202 212 234.5 176.0Q267 140 316 140Q365 140 399.5 176.0Q434 212 434 279Z" transform="translate(75.9200 24.0000) scale(0.020000 -0.020000)"/>
</g>
</svg>